<?xml version="1.0" standalone="no"?>
<!DOCTYPE svg PUBLIC "-//W3C//DTD SVG 20010904//EN"
 "http://www.w3.org/TR/2001/REC-SVG-20010904/DTD/svg10.dtd">
<svg version="1.0" xmlns="http://www.w3.org/2000/svg"
 width="414.000000pt" height="414.000000pt" viewBox="0 0 414.000000 414.000000"
 preserveAspectRatio="xMidYMid meet">

<g transform="translate(0.000000,414.000000) scale(0.100000,-0.100000)"
fill="#000000" stroke="none">
<path d="M0 2070 l0 -2070 2070 0 2070 0 0 2070 0 2070 -2070 0 -2070 0 0
-2070z m2628 724 c265 -88 460 -309 513 -579 16 -80 13 -242 -7 -320 -77 -314
-350 -555 -659 -582 l-75 -6 0 763 0 763 75 -6 c42 -4 111 -18 153 -33z m-853
-199 c120 -30 271 -153 333 -271 82 -158 82 -350 -1 -509 -42 -81 -146 -184
-225 -224 -69 -35 -159 -61 -209 -61 l-33 0 0 543 0 544 53 -8 c28 -4 66 -10
82 -14z m-596 -336 c-8 -5 -22 -6 -32 -3 -9 3 -30 -4 -46 -15 -16 -12 -33 -21
-37 -21 -17 0 63 48 87 52 30 5 45 -2 28 -13z m54 14 c-7 -2 -19 -2 -25 0 -7
3 -2 5 12 5 14 0 19 -2 13 -5z m96 -38 c10 -10 11 -15 3 -15 -7 0 -12 6 -13
13 0 10 -2 10 -6 0 -2 -7 -9 -13 -15 -13 -6 0 -7 7 -4 16 6 15 4 15 -11 3 -9
-8 -14 -9 -10 -2 4 6 1 14 -5 17 -7 3 0 3 16 1 16 -2 37 -11 45 -20z m-82 9
c-3 -3 -12 -4 -19 -1 -8 3 -5 6 6 6 11 1 17 -2 13 -5z m12 -20 c2 -2 -25 -2
-60 -2 -41 1 -57 4 -44 9 17 6 94 2 104 -7z m-219 -32 c0 -5 -7 -17 -15 -28
-14 -18 -14 -17 -4 9 12 27 19 34 19 19z m345 -22 c9 -16 11 -30 6 -30 -5 0
-11 8 -15 18 -3 9 -9 23 -12 30 -12 26 6 10 21 -18z m-351 -58 c-4 -18 -10
-32 -15 -32 -5 0 -9 -17 -9 -37 0 -28 -3 -34 -10 -23 -12 19 -13 83 -1 76 5
-4 15 7 22 23 17 37 21 34 13 -7z m333 -24 c-3 -7 -5 -2 -5 12 0 14 2 19 5 13
2 -7 2 -19 0 -25z m20 0 c-3 -7 -5 -2 -5 12 0 14 2 19 5 13 2 -7 2 -19 0 -25z
m20 -15 c-3 -10 -5 -2 -5 17 0 19 2 27 5 18 2 -10 2 -26 0 -35z m-375 -91
c-20 -5 -28 6 -14 20 7 7 13 23 13 38 1 16 4 11 8 -15 4 -29 2 -41 -7 -43z
m361 24 c4 4 7 0 7 -8 0 -23 -35 -64 -43 -50 -4 6 0 17 9 26 9 9 12 21 7 28
-4 7 -9 24 -10 38 -2 20 0 19 10 -8 7 -18 16 -30 20 -26z m-315 -44 c-22 -4
-23 -16 -3 -32 14 -11 19 -7 16 13 0 4 6 7 14 7 17 0 20 -16 4 -26 -6 -3 -8
-15 -6 -26 5 -18 4 -18 -16 -5 -12 8 -27 24 -33 36 -6 12 -15 22 -20 21 -5 -1
-10 4 -13 11 -2 6 0 9 5 7 5 -3 18 -2 29 2 11 4 25 5 30 1 6 -3 2 -7 -7 -9z
m222 -2 c-8 -5 -17 -7 -19 -4 -3 3 1 9 9 14 8 5 17 7 19 4 3 -3 -1 -9 -9 -14z
m23 -22 c-13 -12 -26 -19 -29 -15 -4 4 1 14 12 22 29 22 41 18 17 -7z m25 -21
c-7 -7 -26 -22 -43 -32 -22 -15 -27 -16 -18 -4 7 9 9 20 5 24 -4 5 1 6 10 2 9
-3 19 0 22 9 3 8 13 14 21 14 14 0 14 -2 3 -13z m-180 -24 c-10 -2 -26 -2 -35
0 -10 3 -2 5 17 5 19 0 27 -2 18 -5z m95 -5 c-17 -8 -29 -8 -45 0 -20 9 -18
11 22 11 40 0 42 -2 23 -11z m-16 -22 c8 -8 -89 -5 -111 4 -13 5 3 7 43 4 35
-2 66 -6 68 -8z"/>
</g>
</svg>
