<?xml version="1.0" standalone="no"?>
<!DOCTYPE svg PUBLIC "-//W3C//DTD SVG 20010904//EN"
 "http://www.w3.org/TR/2001/REC-SVG-20010904/DTD/svg10.dtd">
<svg version="1.0" xmlns="http://www.w3.org/2000/svg"
 width="414.000000pt" height="414.000000pt" viewBox="0 0 414.000000 414.000000"
 preserveAspectRatio="xMidYMid meet">

<g transform="translate(0.000000,414.000000) scale(0.100000,-0.100000)"
fill="#000000" stroke="none">
<path d="M2262 3188 c-6 -7 -67 -204 -137 -438 -70 -234 -134 -443 -141 -465
-11 -34 -13 22 -13 382 l-1 422 -94 -40 c-129 -54 -312 -105 -448 -125 -153
-22 -430 -15 -572 16 -120 26 -260 70 -367 115 l-79 34 0 -617 c0 -665 4 -735
53 -877 109 -316 368 -555 698 -641 53 -14 130 -18 437 -21 l372 -5 0 576 0
576 -36 0 c-40 0 -40 2 3 96 28 62 36 69 21 19 -14 -43 -1 -61 56 -76 22 -6
137 -40 255 -75 118 -35 216 -62 218 -60 2 2 35 109 73 237 38 129 109 368
158 532 49 163 88 297 86 297 -1 0 -116 34 -253 75 -138 41 -257 75 -265 75
-7 0 -18 -6 -24 -12z m-1296 -433 c141 -63 223 -217 194 -363 -34 -166 -162
-272 -330 -272 -141 0 -263 82 -310 207 -32 85 -26 207 15 281 85 156 271 220
431 147z m717 9 c65 -22 149 -101 184 -172 39 -80 40 -192 2 -273 -35 -73 -85
-128 -151 -164 -44 -24 -68 -30 -140 -33 -80 -4 -92 -2 -151 25 -73 35 -128
87 -165 158 -24 44 -27 62 -27 145 0 89 2 99 34 158 33 60 85 113 141 143 76
39 181 45 273 13z m-443 -597 c16 -12 29 -26 29 -32 0 -5 -17 -41 -38 -79 -44
-78 -34 -81 -96 28 l-28 50 38 33 c41 36 51 36 95 0z m309 -1000 c25 -63 23
-89 -10 -131 -16 -21 -28 -26 -53 -24 -28 3 -31 7 -34 40 -3 37 56 195 68 180
3 -4 16 -33 29 -65z"/>
<path d="M750 2677 c-53 -17 -133 -102 -149 -160 -31 -109 20 -225 124 -280
56 -30 155 -29 211 1 102 53 160 183 124 277 l-10 27 -35 -31 c-23 -20 -46
-31 -66 -31 -92 0 -152 105 -99 173 11 14 20 28 20 31 0 10 -82 5 -120 -7z"/>
<path d="M1481 2676 c-48 -17 -108 -71 -133 -119 -28 -52 -30 -156 -5 -203 58
-111 163 -161 276 -134 61 14 136 76 162 135 20 44 25 129 9 170 l-10 26 -29
-33 c-26 -29 -35 -33 -81 -33 -46 0 -55 4 -81 33 -35 39 -39 91 -9 140 l20 32
-43 -1 c-23 0 -57 -6 -76 -13z"/>
<path d="M3255 2548 c-8 -29 -80 -268 -158 -531 -79 -263 -141 -479 -138 -481
3 -2 123 -38 265 -81 213 -63 261 -74 271 -63 9 9 238 760 310 1018 3 8 1 21
-3 27 -7 12 -490 163 -519 163 -7 0 -19 -24 -28 -52z"/>
</g>
</svg>
