<?xml version="1.0" standalone="no"?>
<!DOCTYPE svg PUBLIC "-//W3C//DTD SVG 20010904//EN"
 "http://www.w3.org/TR/2001/REC-SVG-20010904/DTD/svg10.dtd">
<svg version="1.0" xmlns="http://www.w3.org/2000/svg"
 width="960.000000pt" height="356.000000pt" viewBox="0 0 960.000000 356.000000"
 preserveAspectRatio="xMidYMid meet">

<g transform="translate(0.000000,356.000000) scale(0.100000,-0.100000)"
fill="#000000" stroke="none">
<path d="M5856 2812 c-11 -34 4 -53 38 -50 27 3 31 7 31 33 0 26 -4 30 -32 33
-24 2 -33 -1 -37 -16z"/>
<path d="M5584 2700 c-12 -4 -31 -21 -43 -37 -42 -53 -4 -123 76 -137 84 -15
113 -42 81 -74 -20 -20 -86 -15 -100 8 -18 28 -78 28 -78 1 0 -28 53 -68 99
-76 21 -3 56 -2 78 4 109 30 119 154 14 177 -74 16 -106 30 -110 48 -7 42 66
62 96 26 16 -19 62 -27 76 -14 11 11 -17 56 -44 70 -31 15 -111 18 -145 4z"/>
<path d="M5860 2550 l0 -160 35 0 35 0 0 160 0 160 -35 0 -35 0 0 -160z"/>
<path d="M6065 2690 c-16 -11 -38 -34 -47 -52 -22 -41 -24 -138 -3 -178 32
-63 106 -91 183 -70 48 12 102 68 80 81 -22 14 -48 10 -75 -11 -14 -11 -39
-20 -55 -20 -34 0 -78 39 -78 70 0 19 6 20 110 20 l110 0 0 36 c0 49 -27 103
-64 125 -42 26 -121 25 -161 -1z m138 -62 c33 -39 23 -48 -58 -48 -78 0 -90 8
-62 42 33 42 87 45 120 6z"/>
<path d="M6360 2550 l0 -160 35 0 35 0 0 110 c0 97 2 112 20 130 25 25 62 26
83 2 14 -15 17 -40 17 -130 l0 -112 35 0 35 0 0 113 c0 99 2 116 19 131 27 25
72 17 88 -14 8 -15 13 -65 13 -127 l0 -103 36 0 36 0 -4 136 c-3 135 -3 136
-31 160 -43 37 -121 30 -153 -14 -9 -12 -15 -11 -37 12 -37 37 -98 37 -132 0
l-25 -27 0 27 c0 23 -4 26 -35 26 l-35 0 0 -160z"/>
<path d="M6890 2490 l0 -220 35 0 35 0 0 86 0 87 23 -25 c48 -52 133 -41 179
23 28 38 35 129 13 185 -31 82 -122 111 -184 58 l-31 -26 0 26 c0 23 -4 26
-35 26 l-35 0 0 -220z m198 139 c55 -58 21 -189 -50 -189 -9 0 -30 11 -45 24
-25 22 -28 31 -28 84 0 45 5 65 19 81 25 28 79 28 104 0z"/>
<path d="M7260 2550 l0 -160 35 0 35 0 0 95 c0 52 5 105 11 119 13 27 60 52
84 42 12 -4 15 2 15 29 0 32 -3 35 -29 35 -17 0 -38 -10 -55 -26 l-26 -27 0
27 c0 23 -4 26 -35 26 l-35 0 0 -160z"/>
<path d="M7535 2690 c-16 -11 -38 -34 -47 -52 -22 -41 -24 -138 -3 -178 32
-63 106 -91 183 -70 48 12 102 68 80 81 -22 14 -48 10 -75 -11 -14 -11 -39
-20 -55 -20 -34 0 -78 39 -78 70 0 19 6 20 110 20 l110 0 0 36 c0 49 -27 103
-64 125 -42 26 -121 25 -161 -1z m138 -62 c33 -39 23 -48 -58 -48 -78 0 -90 8
-62 42 33 42 87 45 120 6z"/>
<path d="M4377 2646 c-9 -22 19 -42 37 -26 19 15 10 40 -14 40 -10 0 -20 -6
-23 -14z"/>
<path d="M1990 2520 l0 -130 80 0 c63 0 80 3 80 15 0 10 -15 15 -57 17 l-58 3
-3 113 c-2 104 -4 112 -22 112 -19 0 -20 -7 -20 -130z"/>
<path d="M2500 2520 c0 -123 1 -130 20 -130 18 0 20 7 20 63 0 64 17 97 48 97
25 0 44 -48 40 -105 -3 -51 -2 -55 20 -55 21 0 22 4 22 73 0 87 -16 117 -62
117 -17 0 -40 -7 -50 -17 -17 -15 -18 -14 -18 35 0 45 -3 52 -20 52 -19 0 -20
-7 -20 -130z"/>
<path d="M5020 2521 l0 -131 25 0 26 0 -3 128 c-3 123 -4 127 -25 130 -23 3
-23 3 -23 -127z"/>
<path d="M2206 2549 c-54 -64 -11 -169 70 -169 33 0 73 31 84 65 24 73 -16
135 -86 135 -35 0 -47 -5 -68 -31z m98 -15 c33 -32 13 -114 -27 -114 -33 0
-47 19 -47 61 0 38 20 69 45 69 7 0 21 -7 29 -16z"/>
<path d="M2735 2560 c-25 -28 -12 -36 35 -20 30 10 44 10 52 2 19 -19 1 -39
-42 -45 -50 -6 -70 -22 -70 -53 0 -38 36 -67 73 -60 18 4 47 6 65 6 l32 -1 0
76 c0 62 -4 79 -20 95 -28 28 -100 28 -125 0z m91 -126 c-6 -16 -62 -19 -71
-4 -10 16 13 38 43 42 28 3 38 -11 28 -38z"/>
<path d="M2945 2555 c-34 -34 -35 -103 -1 -142 19 -22 33 -28 64 -28 42 0 82
26 82 52 0 18 -35 17 -50 -2 -19 -22 -47 -18 -66 10 -37 56 25 140 66 90 16
-19 50 -20 50 -1 0 47 -105 62 -145 21z"/>
<path d="M3151 2554 c-28 -36 -32 -88 -9 -131 13 -27 69 -47 100 -38 26 8 58
34 58 47 0 11 -38 10 -45 -2 -9 -14 -58 -13 -73 2 -27 27 -13 37 56 40 l67 3
-3 30 c-5 47 -38 75 -88 75 -34 0 -47 -5 -63 -26z m97 -16 c25 -25 13 -38 -33
-38 -48 0 -55 9 -29 34 18 19 45 21 62 4z"/>
<path d="M3350 2485 c0 -88 1 -95 20 -95 18 0 20 7 20 64 0 45 5 69 16 80 35
35 54 8 54 -76 0 -66 1 -68 25 -68 24 0 25 2 25 68 0 84 19 111 54 76 11 -11
16 -35 16 -80 0 -57 2 -64 20 -64 18 0 20 7 20 76 0 41 -5 84 -10 95 -13 23
-71 26 -93 4 -13 -13 -16 -13 -27 0 -18 21 -77 19 -89 -2 -10 -17 -10 -17 -11
0 0 10 -8 17 -20 17 -19 0 -20 -7 -20 -95z"/>
<path d="M3692 2558 c-45 -49 -36 -135 18 -163 36 -19 54 -19 89 -1 55 29 67
105 25 155 -21 26 -33 31 -68 31 -31 0 -48 -6 -64 -22z m92 -24 c19 -18 21
-85 4 -102 -18 -18 -56 -14 -68 7 -23 45 -3 111 35 111 7 0 21 -7 29 -16z"/>
<path d="M3907 2562 c-37 -41 -11 -82 61 -97 44 -9 46 -45 3 -45 -17 0 -33 5
-36 10 -11 18 -47 12 -43 -7 12 -65 158 -44 158 22 0 27 -15 41 -55 51 -47 11
-65 23 -59 39 7 17 49 20 59 5 10 -15 45 -12 45 5 0 36 -104 49 -133 17z"/>
<path d="M4196 2567 c-40 -29 -13 -97 39 -97 28 0 60 -24 51 -38 -9 -15 -66
-16 -66 -2 0 6 -11 10 -25 10 -31 0 -32 -11 -4 -36 32 -29 105 -26 130 5 13
15 17 31 13 45 -8 27 -5 25 -60 45 -28 10 -49 23 -49 31 0 18 43 26 58 11 13
-13 47 -15 47 -3 0 36 -96 56 -134 29z"/>
<path d="M4380 2485 c0 -88 1 -95 20 -95 19 0 20 7 20 95 0 88 -1 95 -20 95
-19 0 -20 -7 -20 -95z"/>
<path d="M4470 2485 c0 -95 0 -95 25 -95 24 0 25 2 25 68 0 84 19 111 54 76
11 -11 16 -35 16 -80 0 -57 2 -64 20 -64 17 0 19 8 22 71 2 54 7 75 20 82 32
20 48 -8 48 -84 0 -67 1 -69 25 -69 24 0 25 2 25 68 0 86 -15 116 -59 120 -20
2 -40 -3 -51 -13 -15 -14 -18 -14 -30 0 -16 20 -59 19 -82 -2 -17 -15 -18 -15
-18 0 0 10 -8 17 -20 17 -19 0 -20 -7 -20 -95z"/>
<path d="M4792 2448 c3 -129 4 -133 26 -136 20 -3 22 0 22 48 0 51 0 51 22 36
30 -21 50 -20 81 4 45 35 48 119 7 160 -22 22 -79 27 -98 8 -9 -9 -12 -9 -12
0 0 7 -11 12 -25 12 l-26 0 3 -132z m122 86 c34 -33 13 -114 -29 -114 -28 0
-45 26 -45 69 0 31 22 61 45 61 7 0 21 -7 29 -16z"/>
<path d="M5135 2555 c-20 -19 -25 -34 -25 -73 0 -63 32 -97 90 -97 36 0 80 26
80 47 0 11 -38 10 -45 -2 -11 -18 -64 -11 -75 9 -5 11 -10 22 -10 25 0 3 32 6
70 6 76 0 79 2 59 59 -13 38 -35 51 -84 51 -25 0 -43 -8 -60 -25z m93 -17 c25
-25 13 -38 -33 -38 -48 0 -55 9 -29 34 18 19 45 21 62 4z"/>
<path d="M5335 2388 c-4 -18 -9 -41 -11 -50 -8 -27 25 -22 35 5 22 59 22 77 2
77 -14 0 -21 -9 -26 -32z"/>
<path d="M1380 1190 l0 -140 140 0 140 0 0 140 0 140 -140 0 -140 0 0 -140z"/>
<path d="M7375 1195 l0 -135 138 0 137 0 0 135 0 135 -137 0 -138 0 0 -135z"/>
<path d="M8340 440 c0 -110 2 -200 5 -200 3 0 43 19 90 42 l85 42 0 116 0 116
-85 42 c-47 23 -87 42 -90 42 -3 0 -5 -90 -5 -200z"/>
<path d="M390 405 c0 -113 2 -205 5 -205 3 0 46 20 95 45 l90 45 0 118 0 118
-85 42 c-47 23 -90 42 -95 42 -6 0 -10 -77 -10 -205z"/>
<path d="M6472 449 l3 -164 25 4 c40 5 77 28 102 63 32 45 33 143 2 185 -24
31 -65 58 -107 68 l-28 7 3 -163z"/>
<path d="M2482 568 c-6 -8 -20 -34 -31 -59 -30 -64 -28 -142 5 -207 14 -29 30
-52 34 -50 5 2 45 39 90 82 l81 80 -84 83 c-68 68 -86 82 -95 71z"/>
<path d="M192 423 c-1 -79 0 -143 3 -143 3 0 32 14 65 30 l60 30 -2 83 -2 82
-3 -81 -4 -80 -54 -27 -54 -27 -4 138 -3 137 -2 -142z"/>
<path d="M8132 433 c-1 -68 0 -123 3 -123 3 0 32 14 65 30 l60 30 0 85 c0 47
-3 85 -7 85 -5 0 -7 -37 -5 -83 l3 -82 -55 -27 -55 -27 -4 117 -3 117 -2 -122z"/>
</g>
</svg>
